<svg xmlns="http://www.w3.org/2000/svg" fill="none" viewBox="0 0 128 128" fill="none">
    <path d="M45.7422 94.8309L70.8789 22.4677L82.3008 22.7802L51.543 107.78H42.8125L45.7422 94.8309ZM22.2461 22.4677L47.1484 94.8309L50.2539 107.78H41.5234L10 22.4677H22.2461Z" />
    <path d="M105.61 77.8008C104.975 75.9125 104.119 74.346 103.041 73.1013C101.987 71.807 100.539 70.8103 98.697 70.1111C96.8916 69.3994 94.5496 68.9301 91.6708 68.703C88.829 68.4635 85.3146 68.4296 81.1275 68.6013C76.7304 68.7612 72.6784 68.6608 68.9716 68.3C65.2524 67.9023 61.9275 67.1452 58.997 66.0289C56.0664 64.9126 53.5794 63.3381 51.5358 61.3053C49.4922 59.2725 47.9412 56.6826 46.8829 53.5355C45.8246 50.3883 45.4951 47.264 45.8945 44.1624C46.2939 41.0608 47.367 38.1242 49.1137 35.3526C50.885 32.5314 53.2685 29.999 56.2643 27.7552C59.26 25.5114 62.8313 23.6923 66.9781 22.2977C73.0502 20.2558 78.8008 20.7803 82.3008 22.7802C81.1275 22.7802 80.0436 23.1091 80.3008 23.78C80.5753 24.496 79.7081 20.5592 81.1275 24.78L76.3008 37.2801C75.2798 34.244 77.9372 32.6279 75.8569 30.7312C78.9339 31.18 73.7642 28.7973 75.8569 30.7312C72.7675 30.2452 73.9647 29.7155 69.929 31.0727C66.1154 32.3551 63.1612 33.9874 61.0666 35.9693C58.9719 37.9513 57.6436 40.1289 57.0816 42.5021C56.5567 44.8629 56.7176 47.3021 57.5643 49.8198C58.137 51.523 59.0117 52.9597 60.1883 54.1301C61.3895 55.251 62.9483 56.1486 64.8648 56.8229C66.8183 57.4848 69.1479 57.9171 71.8537 58.12C74.5965 58.3103 77.7896 58.308 81.4332 58.1131C86.4601 57.865 90.9073 57.9767 94.775 58.4482C98.6426 58.9197 101.986 59.794 104.806 61.0712C107.651 62.2989 110.014 63.9973 111.898 66.1664C113.806 68.286 115.289 70.9194 116.347 74.0665C117.455 77.3617 117.791 80.5664 117.355 83.6804C116.918 86.7944 115.777 89.7127 113.932 92.4352C112.086 95.1577 109.597 97.6225 106.465 99.8296C103.358 101.987 99.6758 103.782 95.4179 105.214C91.6784 106.471 87.8201 107.192 83.843 107.375C79.903 107.546 76.1033 107.093 72.4441 106.016C68.8218 104.926 65.6116 103.162 62.8134 100.724C60.0398 98.2358 57.9744 94.974 56.6173 90.9383L67.2805 87.3524C68.2143 90.1293 69.5543 92.3369 71.3003 93.9751C73.034 95.5764 75.0443 96.7137 77.3313 97.387C79.6554 98.0479 82.1081 98.2946 84.6893 98.1271C87.2952 97.9102 89.894 97.366 92.4857 96.4944C96.2252 95.2369 99.2166 93.654 101.46 91.7457C103.703 89.8374 105.167 87.6965 105.853 85.323C106.575 82.937 106.494 80.4296 105.61 77.8008Z" />
    <style>
        path { fill: #656565; }
        @media (prefers-color-scheme: dark) {
            path { fill: #F4F4F4; }
        }
    </style>
</svg>